<?xml version="1.0" standalone="no"?>
<!DOCTYPE svg PUBLIC "-//W3C//DTD SVG 20010904//EN"
 "http://www.w3.org/TR/2001/REC-SVG-20010904/DTD/svg10.dtd">
<svg version="1.0" xmlns="http://www.w3.org/2000/svg"
 width="700.000000pt" height="700.000000pt" viewBox="0 0 700.000000 700.000000"
 preserveAspectRatio="xMidYMid meet">
<metadata>
Created by potrace 1.11, written by Peter Selinger 2001-2013
</metadata>
<g transform="translate(0.000000,700.000000) scale(0.100000,-0.100000)"
fill="#000000" stroke="none">
<path d="M2117 5834 c-1 -1 -54 -4 -117 -8 -63 -3 -126 -8 -140 -10 -14 -3
-50 -7 -81 -11 -31 -3 -67 -8 -80 -10 -13 -3 -37 -8 -54 -10 -16 -3 -37 -8
-45 -10 -8 -2 -31 -7 -50 -10 -72 -12 -362 -98 -385 -115 -5 -3 -32 -15 -60
-25 -67 -24 -267 -126 -346 -176 -79 -50 -133 -109 -156 -169 -17 -42 -18
-161 -18 -2000 0 -1859 1 -1957 18 -1999 55 -133 198 -211 334 -181 25 6 93
39 152 73 337 198 695 287 1131 282 188 -3 291 -14 475 -50 75 -15 274 -76
335 -102 98 -43 192 -91 258 -130 90 -55 124 -69 182 -77 60 -8 149 16 206 55
86 59 321 171 387 184 9 2 22 7 27 10 13 8 157 47 223 60 10 2 26 6 35 9 9 3
40 8 67 12 28 3 52 8 55 9 28 17 401 25 558 13 322 -25 648 -129 910 -290 83
-51 131 -66 202 -63 124 5 233 93 265 214 9 35 11 518 10 1991 -1 2159 5 1971
-66 2061 -47 59 -265 188 -450 264 -127 53 -389 133 -484 148 -16 3 -70 12
-120 20 -89 15 -133 21 -250 33 -78 7 -386 8 -450 0 -28 -3 -77 -8 -110 -11
-33 -3 -71 -7 -85 -10 -14 -3 -41 -7 -60 -9 -204 -25 -525 -124 -737 -227
l-101 -50 -94 45 c-227 108 -439 176 -683 221 -124 23 -194 32 -335 40 -99 6
-269 12 -273 9z m333 -597 c14 -3 63 -10 110 -17 176 -24 389 -88 563 -169
l87 -40 0 -1576 c0 -1258 -3 -1576 -12 -1571 -44 18 -278 87 -353 104 -95 22
-243 47 -335 57 -240 26 -603 16 -800 -21 -14 -3 -34 -6 -45 -8 -118 -19 -279
-60 -397 -101 l-98 -34 -1 27 c0 15 -1 721 -1 1570 -1 1314 1 1545 13 1556 23
22 186 91 304 129 130 42 301 78 440 92 33 4 61 8 63 10 6 5 434 -2 462 -8z
m2620 0 c14 -3 50 -8 81 -12 60 -6 90 -11 117 -19 9 -3 34 -7 56 -11 21 -3 41
-7 45 -10 4 -2 18 -6 32 -9 51 -10 189 -55 255 -84 171 -72 174 -74 175 -101
1 -33 1 -3114 0 -3122 -1 -4 -40 7 -88 23 -96 33 -285 83 -373 98 -30 5 -64
11 -75 13 -23 5 -105 15 -220 27 -81 9 -529 6 -575 -3 -14 -3 -51 -8 -84 -12
-150 -17 -400 -74 -526 -120 -25 -9 -57 -21 -72 -25 l-28 -9 0 1575 0 1574 58
29 c154 77 403 155 567 177 22 3 46 7 53 9 7 3 47 7 90 11 42 4 79 8 80 10 6
5 405 -3 432 -9z"/>
</g>
</svg>
